HIERARCHY
ROOT Hips
{
  OFFSET -331.093 83.8371 -317.828
  CHANNELS 6 Xposition Yposition Zposition Zrotation Xrotation Yrotation
  JOINT LeftUpLeg
  {
    OFFSET 8.64259 1.95398 -2.38835
    CHANNELS 3 Zrotation Xrotation Yrotation
    JOINT LeftLeg
    {
      OFFSET 43.7702 0 0
      CHANNELS 3 Zrotation Xrotation Yrotation
      JOINT LeftFoot
      {
        OFFSET 40.6238 0 0
        CHANNELS 3 Zrotation Xrotation Yrotation
        JOINT LeftToeBase
        {
          OFFSET 12.7242 0 0
          CHANNELS 3 Zrotation Xrotation Yrotation
          End Site
          {
            OFFSET 0 0 0
          }
        }
      }
    }
  }
  JOINT RightUpLeg
  {
    OFFSET -8.2249 1.95398 -2.59336
    CHANNELS 3 Zrotation Xrotation Yrotation
    JOINT RightLeg
    {
      OFFSET 43.5653 0 0
      CHANNELS 3 Zrotation Xrotation Yrotation
      JOINT RightFoot
      {
        OFFSET 40.6238 0 0
        CHANNELS 3 Zrotation Xrotation Yrotation
        JOINT RightToeBase
        {
          OFFSET 12.7242 0 0
          CHANNELS 3 Zrotation Xrotation Yrotation
          End Site
          {
            OFFSET 0 0 0
          }
        }
      }
    }
  }
  JOINT Spine
  {
    OFFSET 0.165834 0.87714 6.61349
    CHANNELS 3 Zrotation Xrotation Yrotation
    JOINT Spine1
    {
      OFFSET 7.38963 1.71661e-005 0
      CHANNELS 3 Zrotation Xrotation Yrotation
      JOINT Spine2
      {
        OFFSET 11.9445 1.14441e-005 0
        CHANNELS 3 Zrotation Xrotation Yrotation
        JOINT Spine3
        {
          OFFSET 14.7254 4.19617e-005 0
          CHANNELS 3 Zrotation Xrotation Yrotation
          JOINT Spine4
          {
            OFFSET 10.9679 0 0
            CHANNELS 3 Zrotation Xrotation Yrotation
            JOINT RightShoulder
            {
              OFFSET 2.46616 -1.6653 3.69651
              CHANNELS 3 Zrotation Xrotation Yrotation
              JOINT RightArm
              {
                OFFSET 13.0012 0 0
                CHANNELS 3 Zrotation Xrotation Yrotation
                JOINT RightForeArm
                {
                  OFFSET 28.7848 1.62311e-005 0
                  CHANNELS 3 Zrotation Xrotation Yrotation
                  JOINT RightHand
                  {
                    OFFSET 26.5688 1.62095e-005 0
                    CHANNELS 3 Zrotation Xrotation Yrotation
                    End Site
                    {
                      OFFSET 0 0 0
                    }
                  }
                }
              }
            }
            JOINT LeftShoulder
            {
              OFFSET 2.38034 -1.29275 -3.7523
              CHANNELS 3 Zrotation Xrotation Yrotation
              JOINT LeftArm
              {
                OFFSET 16.3182 6.07031e-005 0
                CHANNELS 3 Zrotation Xrotation Yrotation
                JOINT LeftForeArm
                {
                  OFFSET 27.0901 0 0
                  CHANNELS 3 Zrotation Xrotation Yrotation
                  JOINT LeftHand
                  {
                    OFFSET 24.5451 1.51738e-005 0
                    CHANNELS 3 Zrotation Xrotation Yrotation
                    End Site
                    {
                      OFFSET 0 0 0
                    }
                  }
                }
              }
            }
            JOINT Neck
            {
              OFFSET 5.0226 -0.0266342 0
              CHANNELS 3 Zrotation Xrotation Yrotation
              JOINT Head
              {
                OFFSET 6.69364 2.86102e-005 0
                CHANNELS 3 Zrotation Xrotation Yrotation
                End Site
                {
                  OFFSET 0 0 0
                }
              }
            }
          }
        }
      }
    }
  }
}
MOTION
Frames:	17
Frame Time:	0.0416667
49.2829 98.978 21.2202 88.7552 -35.1758 88.3092 -175.38 8.10696 91.1587 -12.9428 6.88882 -0.629706 63.3677 0.864648 0.769081 29.5253 0.930426 1.65003 172.165 5.46438 88.4907 -12.1161 -8.658 -2.83545 66.0832 -3.13934 -1.7085 29.1042 -0.276783 -2.24209 -0.0654414 6.95632 -89.9231 12.9633 -0.0929671 0.165057 1.29236 -0.0855935 0.168974 -21.2428 -0.138274 0.129482 -1.23013 -0.138288 0.12948 92.4784 -40.6138 -98.5994 35.9804 -11.4083 5.91376 -9.70572 -10.109 -41.5179 -6.18543 -0.400514 1.35004 -97.1464 -50.514 68.8429 -23.4011 5.43542 6.12854 6.54835 11.8372 -36.9711 11.0958 0.793557 3.10662 1.03372 -2.1359 3.31097 -2.79777 -2.58157 -2.61065 
49.2353 98.9822 21.2328 88.7265 -35.1778 88.2796 -175.492 8.39703 91.0967 -13.4125 6.24601 -0.488748 63.3531 0.669951 0.325492 29.7624 1.01264 1.22905 172.193 5.46778 88.5403 -12.0046 -8.42672 -2.83182 66.0781 -3.16262 -1.71772 29.0043 -0.241251 -1.97674 -0.0537958 6.95555 -89.9296 12.9628 -0.0729381 0.149758 1.29185 -0.0662952 0.152821 -21.2433 -0.114574 0.12091 -1.23063 -0.114592 0.120907 92.7352 -40.4282 -98.2002 36.2355 -11.3096 5.84151 -9.6534 -10.1235 -41.1162 -6.20438 -0.384289 0.926656 -97.4416 -50.683 68.4712 -23.2991 5.57615 6.43515 6.51157 11.6515 -37.1884 11.5684 0.804171 2.93814 1.28921 -2.19153 3.22732 -3.01486 -2.6273 -2.44935 
49.0591 98.9414 21.1618 89.2033 -35.3283 88.5721 -175.456 8.39414 91.1016 -13.9214 7.26546 -0.538334 62.9377 1.28579 1.70905 30.8059 1.74182 0.970645 172.437 5.91293 88.6342 -13.4242 -8.772 -3.02894 66.4278 -3.22293 -1.75901 28.7108 -0.321394 -2.68806 -0.0398898 7.0106 -89.919 12.8527 -0.0403333 0.166792 1.18171 -0.0329377 0.168396 -21.3534 -0.0886014 0.146961 -1.34072 -0.0885901 0.146953 92.5263 -40.7845 -98.4768 35.979 -11.4128 5.98482 -9.86823 -10.6474 -41.1702 -6.27603 -0.411283 1.43887 -97.2682 -50.5569 68.6808 -23.6023 5.64569 7.2164 7.02553 11.4758 -38.6405 10.834 0.834854 3.60858 1.01621 -2.26206 2.87763 -2.58893 -2.6488 -2.07534 
48.723 98.8124 20.7004 89.9007 -35.7917 88.8888 -175.338 9.12165 90.9459 -15.9042 6.29842 -0.674436 63.0155 1.352 1.18242 31.926 2.59189 0.968845 172.887 7.36993 88.5508 -16.5755 -9.17616 -3.40391 67.6201 -3.68408 -2.01192 26.7936 -0.130839 -1.65334 0.0388212 7.12025 -89.9095 12.6332 0.120376 0.166501 0.962242 0.12758 0.161044 -21.5728 0.0647714 0.194985 -1.56018 0.0647664 0.194979 92.5139 -40.9212 -98.4661 35.9555 -11.6431 6.31478 -9.93203 -10.5046 -41.9674 -7.12149 -0.470712 1.72112 -97.2098 -50.4083 68.717 -24.2322 5.54107 8.29029 7.27683 10.5631 -40.4137 11.5722 0.887824 3.61679 0.932557 -2.38672 2.52053 -2.36523 -2.72174 -1.98167 
47.8691 98.644 19.5584 90.2009 -37.1325 88.4885 -175.388 11.7041 90.3318 -19.663 5.07235 -0.928822 60.9805 -0.241324 0.0455343 35.8408 5.85725 1.73627 174.096 10.5795 88.1906 -21.0488 -9.85735 -4.36748 65.8032 -2.67003 -1.52831 30.8646 -0.351762 -2.30459 0.129232 7.28738 -89.8391 12.2987 0.333291 0.283721 0.627772 0.34547 0.268774 -21.9073 0.232631 0.37078 -1.89469 0.232616 0.370772 92.3857 -40.6187 -98.7576 36.2571 -12.6061 7.41075 -12.0195 -11.5729 -46.0532 -7.95042 -0.536167 1.85736 -96.8142 -50.0563 69.1777 -25.3494 5.06172 9.58284 6.78099 7.77569 -43.486 13.1928 0.986672 3.50896 0.446458 -2.26169 1.7625 -0.527436 -2.50283 -1.36293 
46.4436 98.3265 17.803 90.0575 -38.4825 88.3244 -174.874 16.3128 90.3478 -25.7514 8.04629 -1.57004 61.1254 0.45785 0.96173 34.2663 6.93614 9.07185 175.96 14.8496 88.2865 -25.6612 -9.88404 -5.50751 63.4276 -1.18978 -0.765517 32.8736 -0.381072 -2.00332 0.0130054 7.59551 -89.7209 11.6821 0.156877 0.539913 0.0110823 0.180486 0.532478 -22.5232 -0.0126483 0.562082 -2.51053 -0.0126492 0.562091 92.3005 -40.6449 -98.8977 36.7618 -14.8379 8.05494 -11.0957 -8.89928 -50.3803 -12.2677 -0.580062 -0.134083 -96.6674 -49.3547 69.1657 -26.0368 2.59862 11.6797 6.26559 3.51015 -50.844 14.8434 1.29019 4.73226 0.208166 -1.47004 -0.540876 2.69544 -1.36284 0.22343 
44.4648 97.9117 15.1291 87.7646 -41.6538 87.5946 -175.454 22.2893 91.267 -29.0965 11.4677 -1.45717 60.8287 -0.356867 -0.202442 33.0468 5.04081 6.44426 178.075 20.6069 88.9296 -28.1579 -11.0516 -5.83885 61.0705 -0.0798842 -0.0859749 31.4038 -0.577593 -3.77532 -0.0631059 7.79334 -89.6252 11.2863 0.048998 0.741263 -0.384829 0.0815891 0.738382 -22.9184 -0.176046 0.721716 -2.9057 -0.176031 0.721723 92.1792 -40.7798 -99.0737 37.8652 -15.6854 9.33659 -7.33032 -6.08626 -51.678 -15.3395 -0.501383 -1.64842 -95.974 -48.5777 69.9407 -25.5524 0.0447716 12.5699 5.15741 0.0597584 -59.6414 15.4251 1.40125 5.14096 -1.08557 0.0609308 -1.30825 6.42591 0.213677 -0.241922 
41.7614 96.0566 11.8292 83.6519 -46.954 86.8265 -176.203 31.0366 94.4823 -34.9758 15.9997 -1.14485 58.8459 -2.08911 -0.200603 33.643 5.80549 7.25189 -178.211 29.0302 91.4442 -33.2572 -9.02775 -5.79373 62.3096 -1.18566 -0.686081 32.5405 -0.913339 -5.44147 0.0540638 7.90875 -89.5221 11.0541 0.329322 0.918052 -0.617089 0.369398 0.902665 -23.1496 0.0381815 0.974572 -3.13694 0.0382111 0.974586 91.1994 -43.123 -100.152 36.4051 -15.9276 11.3458 -1.86843 -1.20689 -52.8563 -15.8368 -0.403629 -2.28429 -93.998 -46.3751 72.2291 -24.2354 -1.57136 12.4895 7.68787 -0.493061 -69.6387 16.4025 1.47911 5.11822 -1.88679 1.57231 -2.54214 10.9562 1.85856 -0.0943507 
38.8251 92.3565 8.20898 82.8534 -48.0871 86.1488 -175.448 40.7457 94.7568 -45.6248 17.5362 -1.88396 59.0074 -1.62614 1.03401 33.7497 6.06941 7.81199 -176.387 37.1596 92.0795 -50.4756 -2.00119 -5.80031 70.4671 -4.92146 -2.85099 41.1619 -1.82874 -7.00917 -0.0789562 8.28476 -89.2218 10.3006 0.198545 1.5297 -1.37121 0.265675 1.51948 -23.8993 -0.270308 1.51866 -3.88663 -0.270325 1.51867 90.1259 -43.9186 -101.719 35.4928 -15.8698 11.8246 0.170619 0.96671 -55.9817 -19.0997 -0.564077 -1.804 -93.7503 -45.3605 72.3051 -19.3562 0.221443 8.84668 9.83324 -0.520818 -73.3672 18.9024 1.83709 5.84142 -0.00751291 1.84898 -0.495644 13.3862 1.3704 -3.72828 
36.5482 88.2857 5.37148 85.5624 -49.0832 87.5812 -174.097 46.7956 93.6991 -54.8592 18.3259 -2.0326 58.3747 -1.51563 2.7803 37.2087 8.82957 7.08075 -176.941 38.8163 92.6696 -70.1916 5.54725 -5.07729 74.4351 -6.92209 -3.9272 41.9531 -2.91562 -11.2745 0.105502 8.65524 -88.9562 9.55293 0.681087 2.01736 -2.11935 0.769201 1.98543 -24.642 0.0434413 2.12873 -4.62933 0.0434306 2.12873 89.3247 -43.4438 -103.164 34.047 -15.8124 9.46645 1.21382 2.74823 -60.3565 -21.5956 -0.285579 -3.67602 -94.8922 -45.6701 70.643 -18.1655 1.83621 5.2403 4.48004 -1.08333 -62.7089 25.2223 2.31103 5.38689 -0.118395 1.24354 -0.477919 14.7362 0.489163 -5.42538 
34.7223 85.4115 2.57123 88.2044 -51.1592 88.4138 -172.688 49.1797 91.7225 -59.0709 15.2215 -2.01545 59.5425 -0.244532 4.27986 38.0767 8.75041 4.87449 -178.268 34.3014 91.2689 -83.2878 9.14723 -4.82341 73.7647 -7.22474 -4.28276 46.0059 -3.01013 -9.78811 0.302218 8.64544 -88.8098 9.56568 1.13932 2.27263 -2.10667 1.23823 2.22031 -24.6266 0.403889 2.50983 -4.614 0.403895 2.50983 89.906 -41.2739 -102.815 32.6873 -17.5553 5.61542 -4.36298 2.86784 -73.4764 -23.9784 -0.430745 -3.13591 -96.1216 -47.9993 69.5354 -22.261 4.58228 10.891 -1.67929 -3.84755 -51.0601 27.5247 1.98113 3.37718 -0.845963 1.35315 0.634826 14.1479 0.314162 -6.54982 
31.8088 85.2659 -0.381354 91.1934 -50.7439 91.0264 -173.432 48.1737 92.258 -55.3899 14.7095 -2.14587 58.8533 -0.705053 4.23208 34.6216 5.3998 3.37847 179.173 24.6274 89.2943 -85.4123 6.32229 -4.78302 71.342 -6.20037 -3.92575 46.7558 -3.22463 -10.3228 0.558873 8.60411 -89.1259 9.65239 1.50911 1.61492 -2.01861 1.57872 1.54693 -24.5491 0.954101 1.9937 -4.53642 0.954097 1.99369 91.2549 -37.5247 -101.542 32.8608 -16.5773 2.44279 -7.14931 -0.677079 -93.7956 -24.0664 -0.174527 -4.38549 -96.8568 -48.7353 68.6839 -32.6013 12.0053 23.6053 -2.77356 -3.42269 -52.1984 30.2759 2.04613 2.90975 -0.927208 0.161741 0.345923 12.1927 -0.458139 -4.58191 
26.0601 89.4961 -4.17908 92.2321 -48.6888 93.3008 -176.155 39.1423 95.6238 -31.0155 15.6066 -1.8576 50.2658 -7.18774 -2.2372 22.3423 -4.10381 4.35928 176.425 15.5972 89.5888 -73.483 0.51905 -4.89961 69.1565 -3.97979 -2.78397 42.3468 -1.65275 -5.7384 0.900516 8.4393 -89.6762 9.99348 1.94191 0.48405 -1.67605 1.96135 0.398077 -24.2201 1.70664 1.04544 -4.20748 1.70664 1.04543 91.7194 -36.0622 -101.118 33.7514 -14.6608 0.822875 -11.2173 7.86576 -109.58 -23.0731 -0.509843 -2.64625 -95.0644 -47.307 70.8941 -43.5913 16.8242 37.7955 -0.199617 -4.74816 -66.4383 30.3282 2.23494 3.55597 -4.94081 -1.77059 -0.222977 12.7367 -2.01168 -2.24695 
18.2907 94.2654 -9.47688 90.4386 -45.2259 91.3973 -177.682 31.3366 95.8403 -8.101 13.28 -1.72801 39.1248 -13.1749 -8.67758 19.1247 -5.9354 11.6943 176.639 13.6379 89.2247 -58.104 -7.61107 -5.41755 62.5564 -0.343389 -0.574657 43.5178 -1.62153 -5.40371 0.850726 8.05333 -89.9505 10.7686 1.71694 -0.0603807 -0.901176 1.71261 -0.135917 -23.445 1.65568 0.458563 -3.43234 1.65567 0.458559 92.2004 -37.7401 -99.7972 34.378 -16.3125 5.14629 -12.8902 8.78727 -111.593 -23.0757 -0.594837 -2.23818 -91.1283 -44.3254 76.1079 -48.148 14.5931 43.7802 3.76521 -6.23584 -77.6968 32.0459 2.97245 5.49685 -8.59634 -3.33931 0.745651 12.5552 -3.57588 -1.72993 
9.80617 95.1144 -15.4196 90.5787 -43.3781 90.0215 -175.309 37.2187 93.6255 -38.065 12.2687 -1.7918 54.6552 -5.01314 -1.89353 30.2366 5.78126 17.5821 179.508 18.0018 89.6925 -53.8793 -9.90802 -6.7244 65.0892 -1.87308 -1.4173 45.2053 -2.04383 -6.54778 0.640707 8.00416 -89.9342 10.8665 1.30609 0.00881452 -0.803791 1.30523 -0.0486939 -23.344 1.24307 0.40101 -3.3313 1.24308 0.401013 92.2671 -39.6387 -99.1981 35.9631 -16.0474 12.6807 -11.289 6.92313 -100.297 -23.2683 -0.50943 -2.70144 -91.4054 -45.1973 75.9023 -41.6936 8.70847 38.8587 1.71342 -6.58697 -83.7422 33.2861 2.92569 4.98427 -3.42739 -3.65315 0.825611 8.58037 -3.76153 -0.75108 
0.649696 92.7547 -21.3815 92.5038 -42.7541 89.5455 -169.594 36.8938 91.4996 -70.9777 12.377 -0.457176 57.5963 -2.45053 2.12202 34.2088 9.84717 17.4252 -177.92 25.6582 89.8741 -58.8696 -5.06408 -6.90829 66.5797 -2.88045 -2.01459 45.8037 -1.92214 -5.9375 0.277314 8.00531 -89.7636 10.8617 0.661433 0.408358 -0.809124 0.678795 0.378836 -23.3444 0.508147 0.588262 -3.33176 0.508142 0.58826 91.5372 -40.8134 -100.165 37.6617 -15.9676 19.2234 -9.05251 -3.7453 -83.9783 -24.715 -0.537001 -2.69326 -93.3528 -47.985 73.6823 -31.9576 4.58163 29.2527 4.91094 -6.28263 -90.5564 34.5353 3.15248 5.32902 0.0400917 -2.61851 1.98523 4.74062 -2.92193 -1.08904 
-7.08783 90.6314 -26.7869 93.9075 -41.3708 90.4186 -169.778 25.7827 94.23 -86.715 13.449 2.34544 53.5627 -5.6412 -0.501104 28.9342 4.55663 17.7943 -178.236 29.6969 90.539 -58.4488 -2.57753 -6.27204 72.4195 -5.69034 -3.33513 39.0682 -1.02454 -3.98642 -0.272476 7.92123 -89.6668 11.032 -0.387859 0.70047 -0.639118 -0.356648 0.716852 -23.1736 -0.580456 0.551523 -3.16093 -0.580447 0.55152 90.5487 -41.468 -101.673 40.6104 -19.5512 27.4483 -9.18504 -3.43954 -64.2884 -26.254 -0.685103 -2.20021 -94.898 -48.7898 71.5976 -23.0264 1.18996 17.2902 6.23248 -6.38474 -102.036 33.9467 3.26157 5.83131 2.93086 -0.946574 2.08473 0.29168 -1.29247 -1.10479 
